<svg width="150" height="30" viewBox="0 0 150 30" fill="none" xmlns="http://www.w3.org/2000/svg">
  <path d="M27.3575 7.67286C25.8098 4.78468 23.332 2.5039 20.3258 1.20029C17.3195 -0.103325 13.9611 -0.353348 10.795 0.490755C7.62888 1.33486 4.84067 3.2236 2.88241 5.85077C0.924146 8.47794 -0.0893678 11.6895 0.00618373 14.9648C0.101735 18.2402 1.30075 21.3872 3.40884 23.8957C5.51693 26.4043 8.4105 28.1273 11.6204 28.7854C14.8304 29.4434 18.1685 28.9981 21.0936 27.5214C24.0188 26.0448 26.3594 23.6234 27.736 20.6499L21.2594 17.6514C20.5585 19.1654 19.3667 20.3983 17.8773 21.1501C16.3879 21.902 14.6883 22.1288 13.0539 21.7937C11.4195 21.4586 9.94614 20.5813 8.87277 19.304C7.7994 18.0268 7.1889 16.4244 7.14025 14.7567C7.09159 13.089 7.60764 11.4538 8.60473 10.1161C9.60181 8.77845 11.0215 7.81676 12.6336 7.38697C14.2457 6.95718 15.9557 7.08449 17.4863 7.74825C19.017 8.412 20.2786 9.5733 21.0666 11.0439L27.3575 7.67286Z" fill="#D9D9D9"/>
  <path d="M58.1632 14.5408C58.1632 22.5715 51.6531 29.0816 43.6224 29.0816C35.5917 29.0816 29.0816 22.5715 29.0816 14.5408C29.0816 6.51015 35.5917 0 43.6224 0C51.6531 0 58.1632 6.51015 58.1632 14.5408ZM36.2187 14.5408C36.2187 18.6298 39.5335 21.9445 43.6224 21.9445C47.7114 21.9445 51.0261 18.6298 51.0261 14.5408C51.0261 10.4519 47.7114 7.1371 43.6224 7.1371C39.5335 7.1371 36.2187 10.4519 36.2187 14.5408Z" fill="#D9D9D9"/>
  <path d="M119.388 14.6796C119.388 18.9063 112.878 22.3327 104.847 22.3327C96.8163 22.3327 90.3062 18.9063 90.3062 14.6796C90.3062 10.453 96.8163 7.02658 104.847 7.02658C112.878 7.02658 119.388 10.453 119.388 14.6796ZM97.1505 14.6796C97.1505 16.9168 100.596 18.7304 104.847 18.7304C109.098 18.7304 112.543 16.9168 112.543 14.6796C112.543 12.4425 109.098 10.6289 104.847 10.6289C100.596 10.6289 97.1505 12.4425 97.1505 14.6796Z" fill="#D9D9D9"/>
  <ellipse cx="104.847" cy="14.6797" rx="14.5408" ry="7.65306" transform="rotate(88.9419 104.847 14.6797)" fill="#D9D9D9"/>
  <path d="M150 14.5408C150 22.5715 143.49 29.0816 135.459 29.0816C127.428 29.0816 120.918 22.5715 120.918 14.5408C120.918 6.51015 127.428 0 135.459 0C143.49 0 150 6.51015 150 14.5408ZM128.055 14.5408C128.055 18.6298 131.37 21.9445 135.459 21.9445C139.548 21.9445 142.863 18.6298 142.863 14.5408C142.863 10.4519 139.548 7.1371 135.459 7.1371C131.37 7.1371 128.055 10.4519 128.055 14.5408Z" fill="#D9D9D9"/>
  <path d="M74.2347 0C76.1442 2.27709e-08 78.035 0.376109 79.7992 1.10685C81.5634 1.8376 83.1663 2.90867 84.5166 4.25891C85.8668 5.60915 86.9379 7.21212 87.6686 8.97629C88.3994 10.7405 88.7755 12.6313 88.7755 14.5408L81.1242 14.5408C81.1242 13.6361 80.946 12.7402 80.5998 11.9043C80.2535 11.0684 79.746 10.3089 79.1063 9.66919C78.4665 9.02944 77.707 8.52196 76.8712 8.17573C76.0353 7.8295 75.1394 7.65129 74.2347 7.65129V0Z" fill="#D9D9D9"/>
  <path d="M59.6938 14.5408C59.6938 10.6844 61.2258 6.98584 63.9528 4.25891C66.6797 1.53197 70.3782 -4.59879e-08 74.2347 0V7.64732C72.4064 7.64732 70.653 8.3736 69.3602 9.66638C68.0674 10.9592 67.3412 12.7125 67.3412 14.5408H59.6938Z" fill="#D9D9D9"/>
  <rect x="59.6938" y="14.5408" width="7.65306" height="12.2449" fill="#D9D9D9"/>
  <rect x="81.1224" y="14.5408" width="7.65306" height="12.2449" fill="#D9D9D9"/>
</svg>
